<?xml version="1.0" encoding="utf-8"?>

<!DOCTYPE svg PUBLIC "-//W3C//DTD SVG 1.1//EN" "http://www.w3.org/Graphics/SVG/1.1/DTD/svg11.dtd">
<!-- Uploaded to: SVG Repo, www.svgrepo.com, Generator: SVG Repo Mixer Tools -->
<svg height="800px" width="800px" version="1.1" id="_x32_" xmlns="http://www.w3.org/2000/svg" xmlns:xlink="http://www.w3.org/1999/xlink" 
	 viewBox="0 0 512 512"  xml:space="preserve">
<style type="text/css">
	.st0{fill:#000000;}
</style>
<g>
	<path class="st0" d="M473.351,143.524c-25.16-42.424-61.794-75.883-108.887-96.065c-31.417-13.442-67.549-20.975-108.249-20.975
		c-39.99,0-75.811,7.798-107.174,21.513C117.679,61.722,90.74,81.402,68.68,105.395C24.568,153.355-0.008,218.733,0,287.559
		c0,7.004,0.256,14.025,0.767,21.084l0.036,0.492v0.492c0.009,11.272,2.444,21.595,6.784,30.934
		c4.341,9.321,10.606,17.638,18.303,24.614c15.394,13.953,36.533,22.352,58.338,22.325c10.788-0.01,20.537-2.161,29.219-6.019
		c8.673-3.858,16.287-9.411,22.662-16.352c12.722-13.889,20.437-33.414,20.446-55.502c-0.01-13.122-5.28-24.878-13.871-33.487
		c-8.618-8.59-20.373-13.87-33.496-13.87v-27.332c20.583-0.009,39.342,8.381,52.821,21.869
		c13.497,13.478,21.886,32.237,21.877,52.82c0,68.424,0,165.967,0,165.967c0.009,2.782,1.086,5.171,2.91,7.013
		c1.833,1.824,4.232,2.9,7.012,2.909H318.61c2.782-0.009,5.18-1.085,7.023-2.909c1.814-1.842,2.899-4.231,2.908-7.013
		c0,0,0-97.543,0-165.967c-0.009-20.583,8.38-39.342,21.878-52.811c13.469-13.497,32.228-21.887,52.81-21.878v27.332
		c-13.122,0-24.878,5.28-33.486,13.87c-8.59,8.609-13.872,20.364-13.872,33.487c0,16.571,4.342,31.7,11.883,44.076
		c7.551,12.384,18.221,22.005,31.216,27.778c8.682,3.858,18.43,6.009,29.219,6.019c16.352,0.009,32.338-4.687,45.798-12.95
		c13.47-8.263,24.349-20.018,30.842-33.989c4.332-9.338,6.776-19.661,6.786-30.934v-0.31l0.018-0.31
		c0.237-5.353,0.365-10.669,0.365-15.95C512,237.373,498.475,185.93,473.351,143.524z"/>
</g>
</svg>