<?xml version="1.0" encoding="utf-8"?>
<!-- Generator: Adobe Illustrator 17.0.0, SVG Export Plug-In . SVG Version: 6.00 Build 0)  -->
<!DOCTYPE svg PUBLIC "-//W3C//DTD SVG 1.1//EN" "http://www.w3.org/Graphics/SVG/1.1/DTD/svg11.dtd">
<svg version="1.1" id="Layer_5" xmlns="http://www.w3.org/2000/svg" xmlns:xlink="http://www.w3.org/1999/xlink" x="0px" y="0px"
	 width="800px" height="800px" viewBox="0 0 800 800" enable-background="new 0 0 800 800" xml:space="preserve">
<g>
	<path fill="#231F20" d="M589.121,362.994c-3.612-16.605-18.885-21.643-19.469-21.828c-5.372-1.869-11.201-2.816-17.324-2.816
		c-13.655,0-25.255,4.631-29.758,6.701c-2.189-1.756-4.888-2.672-7.923-2.672c-6.938,0-14.154,4.793-16.638,6.607l-20.23-0.263
		c0.768-2.501,1.23-5.058,1.478-6.7c21.718-10.402,25.032-23.773,25.165-24.349c0.023-0.102,0.042-0.205,0.055-0.309
		c3.106-25.289-13.434-34.823-19.501-37.438c-0.005-0.374-0.017-0.74-0.024-1.112c0.025-0.091,0.04-0.146,0.04-0.146l-0.043-0.003
		c-0.832-44.25-11.381-76.355-31.387-95.449c-17.02-16.244-36.542-18.669-46.665-18.669c-4.145,0-6.849,0.404-7.333,0.482
		c-23.333,3.049-33.951,20.85-37.231,27.754c-7.655-2.435-14.559-3.667-20.555-3.667c-12.817,0-19.138,5.436-22.15,9.814
		c-9.772-13.324-22.918-16.285-32.665-16.285c-9.795,0-17.264,2.942-17.612,3.082c-41.502,17.207-41.438,49.96-41.354,52.762
		c-1.239,29.841,20.068,42.912,27.782,46.65c-1.556,5.449-1.076,10.144,1.436,13.987c4.162,6.366,12.718,8.177,16.638,8.681
		c8.243,20.897,39.943,72.101,45.744,81.406l-2.691,5.831c-8.205,2.344-12.506,13.039-12.697,13.522
		c-0.033,0.084-0.063,0.17-0.088,0.257c-3.261,11.142-1.214,17.326,0.27,19.998c-0.785,3.747,0.658,7.733,1.48,9.586
		c-1.319,7.891,0.922,16.98,3.05,23.252c-6.22-2.634-12.74-3.963-19.466-3.963c-10.168,0-17.081,3.109-17.286,3.205
		c-32.353,13.621-29.725,44.499-29.491,46.701l1.336,17.69c2.101,21.31,26.943,31.849,35.786,34.943l-0.626,1.754
		c-0.286,0.799-0.219,1.682,0.183,2.429c13.774,25.626,40.686,26.924,45.94,26.924c0.544,0,0.837-0.014,0.921-0.019
		c12.644-0.926,20.522-10.568,22.917-13.955c14.203-3.211,18.253-18.398,19.236-23.622c8.992-4.627,12.96-17.95,14.597-26.197
		l36.316,42.173c-0.428,13.597,5.057,18.854,8.48,20.804c-4.348,40.932,16.151,51.411,18.568,52.497
		c4.945,2.746,10.423,4.139,16.283,4.139c12.072-0.001,22.364-5.865,25.686-7.982c0.688,0.102,1.386,0.152,2.086,0.152
		c8.032-0.001,14.234-6.692,14.495-6.977c0.217-0.237,0.395-0.51,0.525-0.804c9.628-21.663,4.311-45.213,2.582-51.535l3.658-4.442
		c0.469-0.569,0.712-1.291,0.683-2.027l-0.666-16.667c-0.004-0.081-0.011-0.163-0.021-0.244
		c-1.611-13.164-9.369-17.691-14.791-18.498c-4.624-7.775-11.858-9.44-15.567-9.76c-2.348-6.264-8.573-8.522-12.759-8.961
		l-15.754-20.13c18.363-26.059,4.987-65.561,4.405-67.235c-2.874-8.624-2.707-20.364-2.571-24.042
		c1.365-1.132,3.326-2.045,5.793-2.728c0.286-0.012,0.58-0.055,0.863-0.151c0.119-0.041,0.226-0.1,0.337-0.154
		c3.229-0.749,7.21-1.144,11.817-1.144c5.887,0,11.253,0.635,13.564,0.952c4.083,5.464,8.063,8.233,11.84,8.232
		c0.083,0,0.164-0.001,0.245-0.004c0.065,0.182,0.133,0.353,0.199,0.533c0.098,0.363,0.193,0.705,0.291,1.013
		c0.147,0.328,0.293,0.616,0.427,0.865c7.347,18.363,18.878,22.416,27.609,22.415c4.495-0.001,8.355-1.098,10.785-2.009v0.001
		c0.024-0.009,0.054-0.021,0.089-0.035c0.516-0.195,0.969-0.382,1.343-0.546c6.115,2.202,11.771,3.317,16.829,3.317
		c17.32-0.001,24.636-13.114,26.406-21.105c9.793-7.127,9.124-23.166,8.722-27.684C598.414,379.456,593.272,368.181,589.121,362.994
		z"/>
	<path fill="#FEF302" d="M395.875,402.173c-6.961,0-12.625,6.129-12.625,13.663s5.664,13.664,12.625,13.664
		c6.962,0,12.625-6.13,12.625-13.664S402.837,402.173,395.875,402.173z M403.807,417.757c-0.071,0.647-0.127,1.318-0.366,1.942
		c-0.115,0.311-0.202,0.636-0.346,0.931c-0.146,0.293-0.313,0.575-0.469,0.857c-0.143,0.292-0.353,0.53-0.544,0.776
		c-0.198,0.239-0.369,0.498-0.593,0.696c-0.427,0.416-0.845,0.804-1.293,1.097c-0.427,0.32-0.875,0.548-1.28,0.758
		c-0.833,0.386-1.559,0.598-2.085,0.687c-0.521,0.101-0.831,0.091-0.831,0.091s0.198-0.222,0.545-0.611
		c0.341-0.376,0.806-0.915,1.32-1.541c0.248-0.323,0.53-0.645,0.782-1.015c0.281-0.346,0.51-0.745,0.773-1.125
		c0.226-0.402,0.475-0.801,0.665-1.222c0.094-0.212,0.178-0.427,0.285-0.633c0.098-0.21,0.138-0.438,0.214-0.654
		c0.192-0.424,0.211-0.887,0.329-1.328c0.089-0.447,0.068-0.908,0.139-1.357c-0.011-0.466-0.021-0.916-0.03-1.343
		c-0.004-0.441-0.11-0.856-0.137-1.26c-0.038-0.403-0.058-0.79-0.143-1.118c-0.073-0.33-0.111-0.637-0.15-0.89
		c-0.074-0.508-0.091-0.827-0.091-0.827s0.24,0.18,0.618,0.546c0.187,0.184,0.423,0.407,0.664,0.686
		c0.267,0.265,0.503,0.606,0.734,1.003c0.222,0.399,0.516,0.819,0.699,1.325c0.167,0.511,0.367,1.057,0.487,1.647
		c0.04,0.301,0.064,0.61,0.09,0.925C403.812,417.113,403.866,417.434,403.807,417.757z M321.275,399.612
		c-0.476,0.556-1.141,0.932-1.886,1.03c-4.743,0.619-8.448,7.318-9.55,10.008c-3.294,11.385,0.051,15.666,0.085,15.708
		c0.349,0.328,0.575,0.696,0.695,1.09c1.557,0.16,3.674,0.069,5.767-1.009c3.327-1.713,5.736-5.405,7.161-10.975
		c0.781-2.824,2.2-10.863-0.48-14.44C322.589,400.386,321.993,399.919,321.275,399.612z M320.881,413.654
		c-0.049,0.613-0.219,1.222-0.368,1.834c-0.142,0.612-0.399,1.202-0.628,1.78c-0.249,0.573-0.554,1.117-0.867,1.623
		c-0.341,0.497-0.668,0.97-1.053,1.37c-0.356,0.416-0.76,0.755-1.122,1.061c-0.766,0.583-1.476,0.949-1.999,1.133
		c-0.526,0.187-0.845,0.211-0.845,0.211s0.195-0.256,0.484-0.683c0.135-0.216,0.299-0.479,0.487-0.781
		c0.188-0.289,0.354-0.652,0.559-1.007c0.181-0.379,0.394-0.762,0.572-1.195c0.208-0.411,0.365-0.879,0.563-1.333
		c0.166-0.47,0.337-0.956,0.511-1.45c0.13-0.512,0.343-0.996,0.446-1.528c0.14-0.518,0.294-1.031,0.396-1.558
		c0.105-0.524,0.268-1.031,0.345-1.545c0.109-0.513,0.215-1.008,0.316-1.478c0.082-0.478,0.174-0.933,0.27-1.358
		c0.216-0.849,0.317-1.578,0.473-2.095c0.134-0.517,0.245-0.823,0.245-0.823s0.15,0.276,0.35,0.777
		c0.098,0.25,0.226,0.556,0.337,0.913c0.125,0.356,0.257,0.761,0.334,1.211c0.089,0.45,0.174,0.942,0.248,1.466
		c0.061,0.524,0.064,1.084,0.074,1.664C321.033,412.444,320.957,413.046,320.881,413.654z"/>
	<path fill="#8B4D2E" d="M494.835,602.266c-0.786,17.481-4.833,26.483-7.822,30.818c-0.385,0.086-0.757,0.239-1.087,0.473
		c-0.108,0.075-10.859,7.606-23.311,7.607c-4.872,0-9.407-1.159-13.48-3.446c-0.107-0.06-0.219-0.113-0.333-0.16
		c-0.193-0.08-18.788-8.163-15.161-45.442c1.293,0.141,2.907,0.255,4.765,0.255c10.081,0,27.26-3.335,38.264-23.67
		c0.299-0.584,6.927-13.831,5.613-34.132c2.95,0.567,7.316,2.342,10.032,7.775c0.342,0.684,0.95,1.191,1.656,1.454
		c2.655,16.738-1.695,31.618-1.741,31.773l-0.12,0.402l0.104,0.404C494.477,585.101,494.83,602.19,494.835,602.266z
		 M341.783,511.828c-8.516-29.646-28.38-41.097-28.58-41.209l0.004-0.007c-0.037-0.021-0.076-0.035-0.113-0.057
		c-7.395-4.551-15.349-6.857-23.639-6.857c-8.786,0-14.821,2.674-14.881,2.701c-23.235,9.784-25.997,28.973-26.087,36.958
		c4.137-4.743,11.71-10.58,23.784-10.192c2.114-0.234,25.09-2.185,42.923,21.261l23.761,32.693
		c0.402,0.518,9.001,11.809,8.751,24.41c11.22-2.516,14.272-16.064,14.861-19.442c-1.517-3.194-4.985-8.484-6.292-10.392
		C346.539,528.151,341.973,512.488,341.783,511.828z"/>
	<path fill="#0662B1" d="M394.628,438.518l0.108,0.015c0.465,0.069,11.827,1.615,17.192-12.279
		c0.201-0.869,1.501-7.122-0.074-16.506l-0.025-0.204c-0.082-0.983-1.706-20.906,1.242-33.374
		c-9.098,3.419-17.725,4.032-20.683,4.14c-3.632,5.747-15.76,26.087-15.223,40.598C377.171,421.622,377.482,436.483,394.628,438.518
		z M395.875,399.172c8.615,0,15.625,7.475,15.625,16.664s-7.01,16.664-15.625,16.664c-8.616,0-15.625-7.476-15.625-16.664
		C380.25,406.647,387.259,399.172,395.875,399.172z M471.361,565.905c-13.99,25.854-38.595,20.109-39.633,19.852l-0.001,0.003
		c-0.018-0.004-0.034-0.012-0.052-0.016c-0.293-0.076-7.174-2.032-6.348-16.911c0.043-0.774-0.216-1.535-0.722-2.124l-40.075-46.54
		c2.392,0.365,7.709,1.035,14.567,1.035c14.196,0,34.929-2.883,49.672-17.298l15.868,20.275c0.568,0.727,1.439,1.151,2.362,1.151
		c0.319,0,7.793,0.078,9.033,6.48C478.178,552.144,471.395,565.836,471.361,565.905z M314.448,434.489
		c-1.829-0.068-3.203-0.833-4.056-1.477c-0.19-0.89-0.284-1.795-0.184-2.588c0.493,0.055,1.021,0.093,1.593,0.093
		c1.752,0,3.826-0.324,5.914-1.389c4.146-2.113,7.086-6.46,8.731-12.892c0.13-0.468,3.134-11.518-0.975-17.009
		c-0.764-1.021-1.712-1.786-2.827-2.297l3.08-6.673c0.038-0.082,0.051-0.17,0.081-0.254c2.425-3.487,7.105-9.84,11.842-14.215
		c1.543,1.682,3.424,3.413,5.66,5.037c-8.35,12.664-13.516,35.716-13.739,36.725c-2.06,8.649-5.176,11.535-5.174,11.535
		l-0.187,0.173C320.727,432.84,317.444,434.596,314.448,434.489z M374.724,523.713c-0.768,0.893-0.941,2.154-0.443,3.223
		c1.237,2.65-0.158,9.185-1.549,13.002c-1.532,3.17-3.429,5.931-5.75,7.63c-2.249-4.123-5.59-9.016-5.797-9.318
		c-9.149-12.73-13.593-27.927-13.636-28.077c-8.293-28.874-26.295-41.6-30.538-44.261c-0.256-0.579-0.633-1.46-1.069-2.565
		c0.118-0.098,0.237-0.196,0.368-0.298c0.328-0.253,0.691-0.521,1.099-0.765c0.398-0.28,0.849-0.473,1.314-0.73
		c0.476-0.181,0.975-0.44,1.504-0.566c0.268-0.074,0.537-0.148,0.808-0.223c0.274-0.06,0.552-0.081,0.834-0.126
		c0.569-0.118,1.136-0.072,1.715-0.08c0.582-0.012,1.133,0.148,1.699,0.21c0.556,0.104,1.068,0.314,1.583,0.459
		c0.524,0.134,0.946,0.421,1.385,0.605c0.425,0.208,0.839,0.38,1.149,0.614c0.328,0.216,0.613,0.404,0.848,0.558
		c0.48,0.315,0.752,0.495,0.752,0.495s-0.209-0.249-0.575-0.685c-0.186-0.221-0.412-0.489-0.672-0.797
		c-0.246-0.329-0.597-0.616-0.967-0.957c-0.386-0.318-0.753-0.752-1.254-1.057c-0.332-0.212-0.678-0.453-1.04-0.685l1.388,0.403
		c0.217-0.733,5.528-17.966,24.892-19.741c0.206-0.017,20.921-1.692,38.993,14.268l3.972-4.498
		c-19.989-17.652-42.553-15.834-43.51-15.744c-21.851,2.003-29.03,20.838-29.989,23.675c-0.086-0.014-0.171-0.032-0.258-0.041
		c-0.362-0.052-0.73-0.124-1.097-0.154c-0.369-0.011-0.736-0.021-1.1-0.032c-0.739-0.033-1.446,0.083-2.152,0.144
		c-0.679,0.133-1.366,0.228-1.975,0.422c-0.522,0.133-0.999,0.296-1.451,0.461c-1.803-5.616-3.496-13.135-2.362-19.349
		c0.714,0.178,1.476,0.307,2.299,0.346c0.194,0.009,0.387,0.014,0.581,0.014c4.3,0,8.672-2.247,13.005-6.685
		c0.802-0.729,4.403-4.44,6.713-14.142c0.033-0.146,1.849-8.255,4.946-17.305c4.492-0.368,19.708-1.4,36.793-0.151
		c-2.475,6.592-4.244,13.581-4.013,19.787c0,0.199,0.25,19.918,21.873,22.482c0.246,0.03,0.895,0.099,1.835,0.099
		c4.448,0,15.392-1.522,20.782-15.692l0.079-0.246c0.071-0.269,1.565-6.093,0.509-15.404c5.084,3.638,13.471,9.853,21.551,16.788
		l1.747,1.5l8.834-6.042c0.448,3.212,1.119,6.49,2.121,9.497c0.138,0.398,13.521,40.013-4.798,63.421
		c-18.146,20.328-50.23,18.181-59.699,17.034c1.287-3.054,2.477-6.56,3.32-10.471c0.349-1.619-0.681-3.216-2.301-3.564
		c-1.619-0.35-3.215,0.682-3.564,2.301C381.721,515.393,374.79,523.635,374.724,523.713z"/>
	<path fill="#89472E" d="M417.952,334.086c2.977,2.868,9.337-1.138,10.868-2.177c4.416-6.857,11.535-11.709,12.404-12.286
		c1.096-0.824,2.187-1.521,3.27-2.121c-0.227-4.761-0.688-9.342-1.333-13.764c-5.233,5.915-11.869,6.709-12.229,6.748l-0.216,0.023
		l-0.217-0.014c-2.994-0.201-6.906,0.024-8.601,2.227c-1.843,2.397-0.549,6.301-0.536,6.34l0.504,1.484l-1.112,1.111
		C414.51,327.809,417.36,333.139,417.952,334.086z"/>
	<path fill="#39BCEA" d="M363.887,265.741c-0.018,0.45-0.054,0.907-0.1,1.367c-0.398-1.965-1.383-3.43-2.844-3.876
		c-2.757-0.842-6.141,2.242-7.561,6.888c-0.355,1.161-0.553,2.31-0.608,3.393c-0.712-0.745-1.432-1.449-2.16-2.105
		c0.142-0.728,0.323-1.458,0.544-2.184c1.697-5.555,5.354-9.744,8.506-9.744c0.314,0,0.62,0.045,0.91,0.134
		C362.492,260.2,363.655,262.596,363.887,265.741z M410.048,283.483c0.049-1.253-0.008-2.472-0.202-3.622
		c-0.572-3.379-2.145-5.763-4.429-6.714c-0.717-0.298-1.491-0.449-2.303-0.449c-4.705,0-9.975,4.767-12.816,11.591
		c-1.691,4.063-2.288,8.276-1.681,11.865c0.572,3.379,2.145,5.764,4.429,6.714c0.716,0.298,1.491,0.449,2.302,0.449
		c0.97,0,1.973-0.225,2.979-0.625c1.668-1.068,3.259-2.473,4.718-4.124c-2.127,1.485-4.456,1.997-6.457,1.164
		c-3.903-1.625-5.078-7.723-2.623-13.621c2.455-5.898,7.609-9.362,11.513-7.737c2.731,1.137,4.12,4.466,3.871,8.382
		C409.647,285.655,409.882,284.561,410.048,283.483z"/>
	<g>
		<path fill="#FCD1AF" d="M364.306,334.25c-1.175,1.633-2.4,2.869-3.59,3.808c2.437-0.757,4.47-1.542,5.959-2.173
			C365.722,335.309,364.916,334.732,364.306,334.25z M465.956,322.147l-0.286-0.155c-0.427-0.263-10.749-6.464-21.494,1.667
			l-0.144,0.101c-0.07,0.046-7.264,4.799-11.239,11.222l-0.245,0.395l-0.37,0.281c-4.257,3.228-12.837,7.227-18.002,1.718
			l-0.221-0.271c-2.162-3.074-4.29-10.605,2.28-17.951c-0.44-2.175-0.782-6.218,1.673-9.445c2.401-3.155,6.659-4.574,12.667-4.22
			c1.18-0.188,7.731-1.545,11.363-8.845c-0.499-2.491-1.059-4.924-1.676-7.3c-6.154-0.287-20.928-5.511-34.593-33.485
			c-10.005,0.07-19.419,4.361-19.419,4.361c2.526-5.156,5.752-8.817,8.8-11.381c-9.017-6.138-23.805-7.194-26.155-7.324
			c0.23,3.73-0.142,8.153-1.645,13.235c0,0,0.287-11.327-11.617-15.355c-0.072,0.545-0.288,1.078-0.667,1.531
			c-0.113,0.135-10.892,13.06-16.285,23.137c1.26,0.481,2.555,1.063,3.865,1.74c0.011-0.035,0.018-0.072,0.029-0.107
			c2.622-8.582,8.609-14.577,14.56-14.577c0.828,0,1.643,0.121,2.423,0.359c6.483,1.98,9.181,11.328,6.141,21.28
			c-0.155,0.509-0.335,1.003-0.516,1.496c-0.837,2.481-2.029,4.71-3.431,6.489c-0.619,0.847-1.275,1.638-1.972,2.348
			c0.438,0.785,0.866,1.598,1.283,2.44c0.735,1.485,0.127,3.285-1.357,4.02c-0.428,0.212-0.882,0.312-1.329,0.312
			c-1.105,0-2.168-0.612-2.691-1.669c-11.335-22.897-30.978-20.661-31.807-20.554c-0.129,0.017-0.255,0.01-0.382,0.01
			c-7.568,1.431-16.347,5.373-18.036,15.829c-0.012,0.075-0.027,0.15-0.045,0.224c-0.231,0.983-5.399,24.305,20.005,32.059
			c1.499,0.315,21.293,4.257,31.263-5.414c1.189-1.155,3.089-1.125,4.242,0.064c1.154,1.189,1.125,3.088-0.064,4.242
			c-0.299,0.291-0.612,0.559-0.923,0.831c22.051,3.835,39.492-8.562,39.679-8.697l1.668-1.21l0.639,1.959
			c2.61,7.999,2.259,13.977-1.045,17.77c-3.836,4.402-10.432,4.407-13.393,4.151c-1.221,5.026-5.727,7.929-5.936,8.062l-0.258,0.13
			c-0.177,0.069-0.352,0.115-0.528,0.177c0.599,4.188,1.876,17.236-3.887,25.663c-2.581,3.774-6.232,6.124-10.853,6.987
			c-0.094,0.019-0.542,0.1-1.273,0.1c-3.828,0-15.447-2.222-25.111-27.016c-1.638-0.157-3.294-0.401-4.957-0.76
			c-0.81-0.175-1.325-0.973-1.15-1.783c0.175-0.81,0.974-1.326,1.783-1.15c4.299,0.928,8.591,1.057,12.609,0.732
			c-4.817-1.25-8.02-4.637-9.54-6.616c-3.949,3.238-7.543,4.378-10.695,3.389c-3.956-1.241-5.921-5.487-6.716-7.789
			c-3.042,0.674-5.56,0.247-7.496-1.277c-2.938-2.313-3.601-6.544-3.725-9.005c-0.438,0.058-0.845,0.091-1.234,0.11
			c-0.267,5.246,0.639,25.413,27.508,43.782l0.728,0.498l0.343,0.812c0.234,0.544,6.007,13.569,22.099,16.88
			c0.99,0.145,17.631,2.416,30.421-6.507l0.773-0.539h0.943c0.196,0,20.035-0.168,32.327-11.23l1.998-1.798l2.006,1.789
			c0.433,0.375,11.158,9.385,29.241-0.4c0.095-0.051,8.709-4.756,13.871-12.604c1.62-2.837,2.528-8.47,2.741-10.416
			c0.048-0.442,0.212-0.849,0.435-1.218C473.943,334.09,472.997,325.384,465.956,322.147z M410.473,292.686
			c-1.624,3.903-4.014,7.208-6.714,9.528c-3.853,3.721-8.42,5.909-12.931,5.909c-1.709,0-3.355-0.324-4.892-0.964
			c-8.671-3.609-11.601-16.458-6.53-28.64c4.111-9.877,12.161-16.513,20.031-16.513c1.709,0,3.356,0.324,4.892,0.964
			c8.427,3.507,11.408,15.737,6.918,27.604C411.015,291.281,410.764,291.987,410.473,292.686z M460.461,333.546
			c-0.475-0.096-1.076-0.104-1.734-0.191c-0.659-0.098-1.415-0.054-2.21-0.121c-0.804,0.033-1.66,0.045-2.546,0.157
			c-0.886,0.099-1.795,0.308-2.704,0.57c-0.458,0.121-0.898,0.322-1.357,0.473c-0.438,0.209-0.89,0.396-1.324,0.628
			c-0.864,0.475-1.715,1.011-2.499,1.656c-0.687,0.54-1.325,1.148-1.932,1.784c0.993-0.257,2.144-0.362,3.296-0.204
			c0.453,0.055,0.903,0.147,1.335,0.283c0.439,0.102,0.846,0.297,1.237,0.475c0.395,0.164,0.741,0.41,1.067,0.627
			c0.329,0.212,0.609,0.46,0.851,0.707c0.498,0.47,0.82,0.953,1.018,1.308c0.204,0.347,0.29,0.566,0.29,0.566
			s-0.251-0.016-0.635-0.079c-0.191-0.034-0.424-0.066-0.665-0.129c-0.248-0.054-0.544-0.074-0.835-0.136
			c-0.291-0.062-0.599-0.127-0.93-0.167c-0.326-0.05-0.65-0.135-0.999-0.171c-0.345-0.049-0.686-0.123-1.045-0.162
			c-0.354-0.049-0.708-0.118-1.072-0.146c-0.717-0.113-1.448-0.17-2.15-0.266c-0.351-0.02-0.697-0.086-1.029-0.111
			c-0.339-0.041-0.66-0.079-0.956-0.114c-0.233-0.033-0.447-0.063-0.648-0.092c-0.115,0.149-0.236,0.296-0.347,0.445
			c-0.571,0.809-1.142,1.594-1.619,2.386c-0.479,0.789-0.931,1.548-1.328,2.265c-0.781,1.439-1.409,2.678-1.831,3.561
			c-0.421,0.892-0.661,1.402-0.661,1.402s-0.017-0.572,0.09-1.564c0.104-0.991,0.331-2.403,0.816-4.053
			c0.463-1.657,1.228-3.538,2.311-5.448c0.566-0.94,1.19-1.902,1.955-2.792c0.737-0.911,1.606-1.751,2.544-2.517
			c0.947-0.755,1.988-1.409,3.079-1.92c1.09-0.513,2.231-0.873,3.352-1.081c1.121-0.214,2.222-0.268,3.245-0.221
			c0.511,0.044,1.01,0.025,1.48,0.123c0.468,0.086,0.919,0.168,1.353,0.248c0.845,0.239,1.621,0.42,2.264,0.714
			c0.651,0.264,1.215,0.484,1.65,0.739c0.882,0.474,1.36,0.774,1.36,0.774S461.424,333.694,460.461,333.546z"/>
	</g>
	<path fill="#FFFFFF" d="M328.572,251.559c0.185,1.796,0.209,6.7-4.465,9.545l0.199,0.327c-10.622,1.655-22.484,7.197-24.756,21.017
		c-0.196,0.934-1.156,6.046-0.242,12.396c-5.869,4.294-18.454,6.567-23.397,7.145c-2.993-0.18-10.7-1.575-13.682-6.157
		c-1.548-2.378-1.736-5.526-0.578-9.369c0.508,0.065,1.029,0.148,1.579,0.165c0.635,0.037,1.292,0.075,1.959,0.114
		c0.66,0.059,1.341,0.021,2.013,0.012c0.669-0.015,1.337-0.03,1.995-0.044c0.655-0.023,1.301-0.127,1.919-0.185
		c0.616-0.068,1.211-0.135,1.775-0.198c0.561-0.04,1.087-0.181,1.571-0.277c1.912-0.407,3.187-0.679,3.187-0.679
		s-1.289-0.103-3.223-0.258c-0.478-0.045-0.993-0.057-1.536-0.178c-0.539-0.098-1.108-0.201-1.697-0.308
		c-0.584-0.117-1.187-0.192-1.789-0.35c-0.598-0.165-1.205-0.332-1.812-0.499c-0.602-0.171-1.205-0.311-1.779-0.542
		c-0.573-0.208-1.137-0.413-1.683-0.611c-0.548-0.178-1.047-0.44-1.53-0.644c-0.26-0.121-0.514-0.229-0.757-0.337
		c-0.348-0.439-0.809-0.783-1.345-0.974c-0.151-0.053-0.758-0.278-1.678-0.69c-0.05-0.031-0.085-0.053-0.085-0.053l-0.005,0.012
		c-6.149-2.775-25.925-13.865-24.732-41.309c0.004-0.083,0.003-0.175,0-0.257c-0.049-1.265-0.774-31.169,37.612-47.085
		c0.067-0.027,6.767-2.641,15.353-2.641c12.937,0,22.934,5.639,29.752,16.733c-0.709,2.366-1.882,7.346-1.697,13.798
		c-1.042-0.212-2.1-0.367-3.164-0.481c-0.874-0.079-1.753-0.12-2.638-0.143c-0.884-0.018-1.772,0.009-2.659,0.077
		c-0.132,0.01-0.264,0.027-0.397,0.039c-0.056-0.451-0.114-0.96-0.249-1.523c-0.119-0.677-0.361-1.404-0.601-2.195
		c-0.316-0.764-0.602-1.609-1.069-2.419c-0.402-0.843-0.959-1.645-1.521-2.469c-0.267-0.422-0.63-0.781-0.947-1.178
		c-0.34-0.378-0.633-0.804-1.024-1.141c-0.756-0.696-1.462-1.46-2.311-2.043l-1.221-0.923c-0.404-0.306-0.856-0.535-1.276-0.801
		c-0.85-0.518-1.676-1.028-2.541-1.396c-0.855-0.382-1.642-0.823-2.447-1.104c-0.797-0.289-1.551-0.562-2.247-0.814
		c-0.684-0.273-1.344-0.431-1.921-0.586c-0.576-0.154-1.078-0.289-1.491-0.4c-0.823-0.22-1.294-0.346-1.294-0.346
		s0.445,0.2,1.224,0.55c0.388,0.174,0.858,0.386,1.398,0.628c0.538,0.242,1.152,0.498,1.777,0.873
		c0.631,0.351,1.315,0.732,2.038,1.134c0.725,0.391,1.41,0.938,2.155,1.425c0.757,0.473,1.45,1.078,2.152,1.68
		c0.345,0.307,0.725,0.578,1.045,0.916l0.96,1.007c0.675,0.636,1.174,1.413,1.729,2.108c0.292,0.339,0.474,0.748,0.709,1.109
		c0.21,0.378,0.469,0.717,0.628,1.104c0.347,0.755,0.696,1.467,0.899,2.187c0.271,0.694,0.371,1.39,0.525,2.004
		c0.075,0.632,0.177,1.199,0.175,1.704c0.041,0.505-0.001,0.929-0.006,1.278c-0.02,0.177-0.036,0.338-0.052,0.466l-0.115,0.03
		c-0.873,0.257-1.745,0.54-2.597,0.893c-0.434,0.157-0.848,0.365-1.269,0.562c-0.426,0.186-0.835,0.409-1.235,0.653
		c-0.818,0.453-1.588,1-2.341,1.569l-1.086,0.917l-1.009,1.007c-0.242,0.271-0.48,0.548-0.715,0.826
		c-0.006-0.019-0.011-0.035-0.017-0.054c-0.129-0.462-0.316-0.926-0.516-1.402c-0.206-0.473-0.373-0.978-0.63-1.462
		c-0.505-0.971-1.015-1.996-1.712-2.955c-0.611-1.012-1.441-1.908-2.226-2.844c-0.383-0.477-0.879-0.857-1.315-1.29
		c-0.461-0.407-0.877-0.866-1.375-1.226l-1.481-1.08c-0.486-0.363-0.973-0.717-1.509-0.986c-0.519-0.29-1.034-0.577-1.542-0.861
		c-0.502-0.292-1.004-0.563-1.534-0.757c-1.04-0.425-2.028-0.859-2.98-1.219c-0.976-0.286-1.899-0.556-2.75-0.805
		c-0.425-0.121-0.828-0.249-1.216-0.347c-0.396-0.074-0.771-0.144-1.123-0.21c-0.702-0.131-1.315-0.245-1.819-0.339
		c-1.004-0.187-1.578-0.293-1.578-0.293s0.555,0.183,1.527,0.502c0.483,0.159,1.071,0.352,1.744,0.574
		c0.335,0.11,0.692,0.228,1.068,0.352c0.368,0.148,0.746,0.327,1.144,0.501c0.79,0.351,1.646,0.731,2.551,1.134
		c0.869,0.47,1.756,1.013,2.681,1.543c0.473,0.248,0.911,0.567,1.343,0.905c0.436,0.326,0.877,0.657,1.321,0.99
		c0.46,0.31,0.861,0.697,1.258,1.089l1.205,1.151c0.404,0.379,0.716,0.845,1.075,1.257c0.332,0.436,0.725,0.817,1,1.283
		c0.569,0.915,1.183,1.766,1.581,2.703c0.484,0.887,0.789,1.815,1.103,2.673c0.162,0.427,0.237,0.872,0.356,1.283
		c0.112,0.413,0.217,0.812,0.268,1.207c0.065,0.389,0.128,0.762,0.187,1.117c0.032,0.356,0.061,0.694,0.09,1.012
		c0.055,0.631,0.046,1.182,0.046,1.623c-0.016,0.448-0.033,0.782-0.06,0.952c-0.027,0.232-0.042,0.357-0.042,0.357l0.438,0.03
		c-0.042,0.123-0.087,0.245-0.123,0.37c-0.143,0.445-0.297,0.889-0.427,1.337l-0.309,1.358c-0.237,0.903-0.297,1.819-0.448,2.728
		c-0.101,0.91-0.121,1.821-0.182,2.729l-0.008,0.118l0.012,0.109c0.093,0.813,0.229,1.395,0.411,2.067
		c0.188,0.646,0.404,1.283,0.68,1.903c0.06,0.137,0.13,0.271,0.194,0.407c-3.623,4.863-8.973,4.99-11.68,4.668
		c0.079-0.528,0.15-1.057,0.177-1.595c0.064-0.941,0.141-1.88,0.109-2.831c0.024-0.947-0.078-1.898-0.167-2.846
		c-0.027-0.475-0.138-0.945-0.208-1.417c-0.086-0.471-0.139-0.946-0.279-1.407l-0.368-1.39l-0.47-1.36
		c-0.144-0.457-0.352-0.891-0.542-1.331c-0.19-0.44-0.379-0.879-0.616-1.297c-0.431-0.855-0.926-1.672-1.462-2.46
		c-0.567-0.765-1.141-1.521-1.779-2.218c-0.631-0.701-1.288-1.376-1.992-1.992c-0.341-0.32-0.698-0.621-1.073-0.899
		c-0.366-0.288-0.733-0.573-1.118-0.831c-0.754-0.538-1.535-1.032-2.33-1.489c-0.79-0.467-1.616-0.867-2.448-1.238
		c-0.829-0.378-1.674-0.712-2.527-1.014c-1.715-0.576-3.463-1.044-5.244-1.249c1.651,0.678,3.23,1.471,4.743,2.35
		c0.753,0.445,1.503,0.885,2.217,1.379c0.723,0.477,1.41,1.003,2.092,1.522c0.679,0.523,1.334,1.073,1.952,1.655
		c0.625,0.573,1.212,1.184,1.774,1.805c0.575,0.61,1.096,1.264,1.589,1.931c0.499,0.664,0.929,1.369,1.355,2.071
		c0.378,0.731,0.791,1.435,1.104,2.19c0.182,0.365,0.319,0.75,0.458,1.133c0.138,0.383,0.296,0.758,0.393,1.155l0.331,1.174
		l0.241,1.197c0.147,0.799,0.261,1.609,0.332,2.422c0.055,0.818,0.107,1.633,0.081,2.46c0.023,0.822-0.057,1.649-0.12,2.476
		c-0.051,0.826-0.221,1.652-0.312,2.48c-0.134,0.773-0.304,1.543-0.456,2.315c-0.074,0.154-0.188,0.384-0.299,0.565
		c-0.139,0.257-0.317,0.502-0.481,0.753c-0.361,0.483-0.746,0.955-1.188,1.372c-0.225,0.203-0.429,0.432-0.675,0.612
		c-0.242,0.183-0.459,0.404-0.724,0.557c-0.259,0.161-0.502,0.349-0.772,0.495l-0.82,0.425c-0.281,0.128-0.578,0.225-0.866,0.343
		c-0.285,0.128-0.591,0.204-0.898,0.28c-0.308,0.072-0.606,0.179-0.923,0.226c-0.318,0.042-0.635,0.092-0.953,0.149
		c-0.634,0.125-1.301,0.095-1.957,0.157c-0.331,0.008-0.666-0.026-1-0.035l-1.007-0.044l-0.211-0.016
		c0.008,0.007-0.174,0-0.286-0.014c-0.124-0.006-0.267-0.043-0.401-0.061c-0.275-0.063-0.556-0.131-0.839-0.228
		c-0.569-0.175-1.125-0.454-1.671-0.763l-0.797-0.525l-0.762-0.602l-0.723-0.671c-0.255-0.212-0.464-0.476-0.696-0.717
		c-0.224-0.249-0.468-0.485-0.666-0.761l-0.627-0.806c-0.22-0.263-0.38-0.568-0.585-0.847l-0.584-0.86l-1.051-1.814L247.667,248
		l0.483,2.082c0.192,0.688,0.438,1.361,0.659,2.049l0.41,1.003c0.144,0.333,0.271,0.676,0.449,0.994l0.516,0.97
		c0.162,0.331,0.377,0.632,0.575,0.947c0.207,0.308,0.389,0.635,0.63,0.924c0.229,0.298,0.465,0.592,0.709,0.882l0.795,0.825
		c0.282,0.262,0.581,0.51,0.875,0.766c0.62,0.476,1.277,0.927,2.018,1.277c0.362,0.187,0.753,0.331,1.155,0.461
		c0.21,0.055,0.406,0.122,0.631,0.163c0.235,0.046,0.402,0.087,0.763,0.106l-0.211-0.015l1.148,0.168
		c0.385,0.05,0.766,0.122,1.156,0.152c0.785,0.014,1.569,0.113,2.368,0.045c0.399-0.024,0.799-0.055,1.198-0.093
		c0.4-0.038,0.796-0.143,1.195-0.215c0.399-0.076,0.798-0.155,1.186-0.294c0.39-0.128,0.786-0.239,1.17-0.388l1.135-0.504
		c0.375-0.177,0.726-0.404,1.089-0.607c0.37-0.195,0.691-0.465,1.036-0.701c0.349-0.233,0.654-0.519,0.968-0.796
		c0.623-0.558,1.178-1.188,1.697-1.848c0.245-0.343,0.497-0.68,0.717-1.049c0.115-0.184,0.217-0.354,0.318-0.541
		c0.86,0.13,1.811,0.214,2.837,0.214c4.12,0,9.281-1.283,13.15-5.688c0.152,0.124,0.299,0.254,0.459,0.368
		c0.582,0.402,1.196,0.756,1.841,1.027c0.641,0.279,1.307,0.482,1.972,0.625c0.668,0.15,1.335,0.208,1.997,0.255
		c0.659,0.003,1.316-0.012,1.952-0.101c0.645-0.05,1.259-0.206,1.88-0.319c0.605-0.164,1.214-0.307,1.798-0.509
		c0.578-0.221,1.165-0.409,1.717-0.672c1.125-0.475,2.204-1.026,3.235-1.646c0.511-0.32,1.04-0.598,1.527-0.952l1.467-1.031
		c-1.134,0.385-2.244,0.793-3.368,1.14c-0.553,0.196-1.129,0.324-1.686,0.489c-0.555,0.176-1.123,0.293-1.684,0.424
		c-0.558,0.146-1.128,0.212-1.686,0.312c-0.558,0.102-1.118,0.146-1.671,0.212c-0.553,0.013-1.106,0.073-1.645,0.03
		c-0.544,0.003-1.068-0.092-1.589-0.14c-0.51-0.098-1.015-0.195-1.489-0.359c-0.475-0.158-0.928-0.354-1.347-0.596
		c-0.423-0.234-0.808-0.522-1.167-0.832c-0.356-0.316-0.689-0.657-0.985-1.037c-0.29-0.386-0.568-0.783-0.792-1.226
		c-0.24-0.43-0.444-0.888-0.619-1.361c-0.181-0.47-0.316-0.965-0.431-1.46c-0.1-0.422-0.189-0.923-0.226-1.285
		c0.076-0.771,0.129-1.548,0.226-2.311c0.144-0.783,0.198-1.595,0.414-2.354l0.271-1.155l0.348-1.122
		c0.125-0.469,0.307-0.911,0.495-1.35l0.4,0.027c0,0-0.003-0.167-0.008-0.48c-0.001-0.125-0.011-0.276-0.019-0.422
		c0.348-0.664,0.66-1.352,1.087-1.967c0.387-0.666,0.882-1.253,1.352-1.859l0.77-0.859l0.843-0.794
		c0.581-0.51,1.179-1.014,1.837-1.444c0.318-0.23,0.648-0.445,0.992-0.644c0.339-0.205,0.672-0.424,1.033-0.598
		c0.701-0.385,1.438-0.713,2.186-1.025c0.755-0.301,1.528-0.56,2.309-0.825c0.788-0.241,1.587-0.463,2.399-0.65
		c1.626-0.353,3.289-0.672,4.98-0.83c1.049-0.121,2.109-0.196,3.175-0.247C315.396,228.618,318.37,240.172,328.572,251.559z
		 M348.77,268.495c2.071-6.779,6.552-11.513,10.897-11.513c0.561,0,1.113,0.082,1.641,0.243c0.37,0.113,0.715,0.275,1.048,0.457
		c-0.886-1.665-2.124-2.861-3.673-3.335c-0.496-0.151-1.016-0.228-1.547-0.228c-4.496,0-9.522,5.354-11.691,12.453
		c-0.077,0.252-0.127,0.515-0.196,0.771c1.074,0.672,2.149,1.424,3.219,2.26C348.561,269.233,348.657,268.863,348.77,268.495z
		 M396.245,183.804c-12.836,2.134-17.724,11.308-19.378,15.816c7.752,4.43,18.454,11.506,29.373,21.755
		c3.064,2.876,6.236,6.105,9.409,9.686c14.365-12.484,8.866-28.023,8.611-28.709C416.466,180.053,397.066,183.64,396.245,183.804z
		 M403.176,265.74c-1.17-0.487-2.428-0.733-3.74-0.733c-6.569,0-13.667,6.03-17.261,14.666c-4.435,10.656-2.231,21.744,4.913,24.718
		c1.17,0.487,2.428,0.733,3.74,0.733c0.345,0,0.692-0.026,1.039-0.059c-2.981-1.345-5.011-4.341-5.714-8.494
		c-0.685-4.047-0.032-8.75,1.838-13.243c3.218-7.731,9.436-13.13,15.124-13.13c1.143,0,2.241,0.216,3.264,0.642
		c1.127,0.469,2.118,1.177,2.964,2.084C408.191,269.56,406.108,266.96,403.176,265.74z M587.422,385.316
		c-0.072-0.12-0.143-0.24-0.216-0.359c-0.353-0.608-0.816-1.104-1.264-1.608c-0.443-0.505-0.907-0.978-1.361-1.427
		c-0.458-0.444-0.892-0.883-1.389-1.199c-0.481-0.335-0.948-0.636-1.387-0.902c-0.879-0.531-1.655-0.91-2.217-1.146
		c-0.557-0.242-0.902-0.342-0.902-0.342s0.112,0.359,0.356,0.921c0.239,0.567,0.607,1.336,1.1,2.182
		c0.247,0.423,0.524,0.867,0.829,1.321c0.33,0.436,0.583,0.957,0.897,1.451c0.308,0.498,0.631,1.004,0.987,1.493
		c0.335,0.503,0.762,0.962,1.037,1.495c0.326,0.505,0.648,1.011,1.002,1.491c0.168,0.245,0.352,0.48,0.529,0.714
		c0.108,0.19,0.219,0.375,0.333,0.559c0.562,5.089,0.427,17.06-5.702,22.217c-0.134-0.541-0.273-1.077-0.488-1.578
		c-0.156-0.394-0.321-0.78-0.493-1.156c-0.17-0.377-0.319-0.757-0.546-1.089c-0.41-0.685-0.828-1.33-1.234-1.925
		c-0.465-0.558-0.918-1.069-1.344-1.526c-0.219-0.225-0.419-0.445-0.623-0.643c-0.224-0.181-0.436-0.352-0.635-0.513
		c-0.39-0.325-0.76-0.579-1.056-0.792c-0.597-0.421-0.967-0.623-0.967-0.623s0.104,0.428,0.338,1.109
		c0.119,0.339,0.253,0.754,0.441,1.196c0.193,0.441,0.37,0.957,0.55,1.514c0.193,0.55,0.412,1.13,0.658,1.727
		c0.188,0.622,0.392,1.264,0.629,1.909c0.242,0.644,0.359,1.341,0.592,2.008c0.207,0.676,0.308,1.378,0.49,2.063
		c0.125,0.691,0.237,1.388,0.338,2.072c0.033,0.509,0.096,1.013,0.132,1.51c-1.399,4.703-6.09,15.126-20.195,15.127
		c-3.891,0-8.271-0.803-13.042-2.368c1.021-2.079,1.909-4.905,2.369-8.698c0.374,0.113,0.767,0.192,1.108,0.312
		c0.407,0.127,0.844,0.203,1.218,0.317c0.762,0.212,1.487,0.364,1.995,0.511c0.52,0.134,0.88,0.191,0.88,0.191
		s-0.021-0.334-0.166-0.884c-0.079-0.268-0.157-0.629-0.321-0.978c-0.165-0.347-0.375-0.731-0.628-1.142
		c-0.255-0.411-0.591-0.778-0.952-1.188c-0.36-0.417-0.798-0.747-1.254-1.114c-0.224-0.193-0.472-0.344-0.722-0.496
		c-0.248-0.159-0.506-0.31-0.771-0.45c-0.524-0.292-1.09-0.495-1.647-0.727c-0.573-0.165-1.141-0.359-1.718-0.458
		c-0.573-0.11-1.142-0.196-1.698-0.216c-1.108-0.077-2.154,0.037-3.041,0.218c-0.89,0.191-1.622,0.469-2.129,0.721
		c-0.507,0.239-0.785,0.449-0.785,0.449s0.268,0.223,0.712,0.537c0.445,0.319,1.07,0.738,1.802,1.148
		c0.69,0.401,1.477,0.792,2.305,1.164c-0.684,8.398-3.556,10.554-3.984,10.828c-1.925,0.711-5.023,1.594-8.578,1.594
		c-10.892,0.001-18.874-7.872-23.727-23.401c-0.146-0.469-0.409-0.881-0.745-1.219c-0.093-0.464-0.185-0.92-0.283-1.409
		c-0.098-0.773-0.156-1.589-0.24-2.416c-0.071-0.829-0.175-1.673-0.223-2.526c-0.017-1.723-0.035-3.445-0.051-5.06
		c-0.03-0.815,0.03-1.598,0.075-2.342c0.044-0.746,0.085-1.451,0.123-2.102c0.155-2.618,0.259-4.364,0.259-4.364
		s-0.474,1.685-1.184,4.213c-0.178,0.635-0.371,1.324-0.575,2.052c-0.205,0.729-0.435,1.497-0.582,2.311
		c-0.338,1.631-0.698,3.37-1.059,5.109c-0.142,0.882-0.228,1.78-0.342,2.662c-0.101,0.885-0.224,1.755-0.299,2.611
		c-0.007,0.358-0.013,0.707-0.019,1.054c-0.634-0.049-2.875-0.59-6.505-5.271c-0.554-1.618-3.14-10.646,0.284-29.407
		c0.344-1.228,3.754-12.924,10.288-19.374c2.907-1.941,7.772-4.583,11.863-4.583c1.494,0,2.721,0.348,3.768,1.062
		c-0.196,0.232-0.386,0.47-0.571,0.712c-0.326,0.42-0.652,0.84-0.973,1.253c-0.326,0.4-0.564,0.872-0.834,1.282
		c-0.256,0.417-0.503,0.821-0.738,1.203c-0.248,0.367-0.414,0.762-0.577,1.117c-0.633,1.396-1.055,2.326-1.055,2.326
		s0.722-0.705,1.805-1.762c0.266-0.259,0.542-0.546,0.899-0.792c0.338-0.256,0.694-0.526,1.063-0.805
		c0.376-0.266,0.716-0.581,1.139-0.818c0.409-0.244,0.825-0.491,1.24-0.739c0.408-0.249,0.814-0.491,1.25-0.677
		c0.105-0.05,0.205-0.096,0.309-0.146c0.675,0.145,1.397,0.063,2.042-0.281c0.131-0.069,13.258-6.962,28.915-6.962
		c5.45,0,10.616,0.835,15.419,2.505c0.531,0.173,13.025,4.393,15.64,18.042c0.1,0.519,0.334,1.004,0.682,1.403
		C584.156,366.402,592.271,375.933,587.422,385.316z M542.896,383.441c-1.429-1.304-9.531-4.996-9.531-4.996
		c-1.558-0.71-2.189-0.047-1.401,1.473c0,0,4.174,8.06,5.603,9.363c1.429,1.304,3.78,1.053,5.252-0.559
		C544.29,387.11,544.325,384.745,542.896,383.441z M549.488,365.347c-1.849-0.239-10.285,1.327-10.285,1.327
		c-1.622,0.301-1.753,1.173-0.291,1.938c0,0,7.751,4.053,9.599,4.292c1.849,0.239,3.566-1.259,3.836-3.345
		C552.617,367.471,551.337,365.586,549.488,365.347z M552.569,351.465c-0.727-1.974-2.735-3.052-4.484-2.408
		c-1.749,0.645-8.501,5.94-8.501,5.94c-1.298,1.018-1.011,1.852,0.639,1.852c0,0,8.746,0.002,10.495-0.643
		C552.469,355.562,553.297,353.439,552.569,351.465z M356.487,271.627c-0.579,1.894-0.137,3.708,0.987,4.051
		s2.504-0.914,3.082-2.808c0.579-1.894,0.137-3.708-0.987-4.051S357.065,269.733,356.487,271.627z M403.921,282.617
		c-1.552-0.646-3.601,0.731-4.577,3.076c-0.976,2.345-0.509,4.769,1.043,5.415s3.601-0.731,4.577-3.076
		C405.94,285.687,405.473,283.263,403.921,282.617z M372.25,337.5c-9.75,5.375-27.25,6.716-27.25,6.716
		c2.625,4.466,6.125,3.659,6.125,3.659c13.75,0.625,25.75-7.017,25.75-7.017C378.375,337.466,372.25,337.5,372.25,337.5z"/>
	<path fill="#FDB46F" d="M336.555,548.918c0.102,0.132,9.283,12.171,8.032,24.471c-0.638,0.953-2.942,4.176-6.648,7.044
		c0.008-0.046,0.021-0.09,0.028-0.136c1.211-7.666-4.402-16.32-6.023-18.626l1.755-7.711l-0.904-0.566
		c-7.699-4.811-28.094-29.758-28.259-29.958c-13.623-18.274-36.434-15.331-38.029-15.097c-9.127,0.599-14.221,4.861-17.06,9.22
		l-0.727-9.637c2.879-4.222,10.126-12.21,23.562-11.757l0.121,0.004l0.12-0.015c0.228-0.03,23.009-2.627,40.265,20.059
		L336.555,548.918z M502.352,577.426l3.938-4.782l-0.615-15.398c-1.188-9.407-5.819-12.136-8.586-12.926
		c2.264,15.638-1.161,29.161-1.868,31.705c2.259,9.154,2.599,25.575,2.612,26.279c-0.736,16.411-4.256,25.811-7.396,31.027
		c4.524-0.028,8.577-3.617,9.704-4.71c9.75-22.572,1.752-48.114,1.669-48.371C501.499,579.278,501.702,578.214,502.352,577.426z
		 M286.15,556.68l44.085-1.399c-8.636-6.236-27.246-28.996-28.064-29.999c-13.01-17.45-35.037-14.005-35.258-13.969l-0.151,0.018
		c-11.053,0.703-15.275,7.356-16.881,11.976l0.111,1.468c2.097,21.264,34.166,30.58,34.49,30.671
		C285.173,555.641,285.755,556.087,286.15,556.68z M328.714,562.348l0.072-0.316l-43.384,0.898
		c12.364,21.307,35.334,22.414,39.895,22.414c0.343,0,0.541-0.007,0.573-0.008c2.971-0.218,5.638-1.093,7.968-2.282
		c0.585-0.959,0.975-2.026,1.165-3.219c1.187-7.482-5.798-16.837-5.869-16.931L328.714,562.348z"/>
	<path fill="#EE1C27" d="M331.964,367.677c0.443,0.89,1.273,2.404,2.542,4.211c-4.108,3.742-8.077,8.728-10.842,12.501
		c-7.457-12.03-34.973-56.86-43.482-76.958c5.129-0.847,14.253-2.768,20.592-6.419c0.225,0.662,0.484,1.326,0.762,1.991
		c-1.392,1.61-3.103,4.27-3.091,7.623c0.01,3.018,1.387,5.811,4.097,8.319C302.203,325.322,303.29,347.738,331.964,367.677z
		 M459.75,367.978c-17.18,9.294-29.24,4.083-33.93,1.15c-2.112,1.672-4.354,3.089-6.639,4.3c-3.07,6.834-3.099,21.875-2.671,30.959
		c2.825,1.945,13.68,9.538,24.437,18.593l7.768-5.313c-0.297-5.075-0.145-9.203-0.072-10.652c-0.451,0.158-0.909,0.29-1.312,0.465
		c-0.431,0.181-0.856,0.336-1.227,0.514c-0.742,0.357-1.368,0.671-1.774,0.939c-0.422,0.254-0.663,0.4-0.663,0.4
		s0.18-0.217,0.495-0.595c0.306-0.398,0.797-0.906,1.412-1.517c0.307-0.305,0.667-0.599,1.04-0.933
		c0.37-0.34,0.796-0.636,1.225-0.979c0.869-0.66,1.842-1.303,2.84-1.921c0.13-0.077,0.263-0.149,0.394-0.226
		c4.489-3.536,11.985-5.329,22.345-5.329c4.704,0,9.024,0.37,11.945,0.701c-0.794-5.249-1.177-14.154,1.255-27.409
		c0.015-0.078,0.032-0.155,0.053-0.232c0.119-0.446,2.341-8.61,6.986-15.962l-18.771-0.244
		C468.854,363.029,460.137,367.771,459.75,367.978z M482.516,285.365c-0.143,0.309-0.282,0.618-0.446,0.921
		c-0.226,0.44-0.453,0.88-0.676,1.314c-0.213,0.433-0.486,0.837-0.715,1.235c-0.484,0.788-0.885,1.53-1.334,2.119
		c-0.839,1.18-1.398,1.967-1.398,1.967s0.214-0.933,0.535-2.333c0.182-0.681,0.268-1.521,0.408-2.387
		c0.056-0.438,0.149-0.875,0.178-1.339c0.038-0.458,0.076-0.923,0.114-1.388c0.081-0.755,0.085-1.511,0.099-2.234
		c-0.172-0.375-0.277-0.786-0.281-1.217c-0.346-44.279-10.298-76.062-29.58-94.465c-22.113-21.105-48.836-16.614-48.914-16.601
		c-0.038,0.006-0.082,0.013-0.12,0.018c-20.107,2.607-29.45,17.825-32.447,23.988c1.565,0.73,3.711,1.785,6.319,3.202
		c2.09-5.256,7.753-15.036,21.445-17.311c0.175-0.037,22.715-4.306,31.38,20.48c0.06,0.159,6.493,18.089-9.47,31.992
		c15.495,18.231,30.5,45.078,32.75,81.839c9.16-2.297,16.611,1.786,17.815,2.502c8.039,3.775,10.192,12.078,10.669,17.853
		c15.94-8.311,19.337-17.917,19.702-19.102C501.122,294.65,487.037,287.183,482.516,285.365z M414.171,257.028
		c8.547,21.6,19.245,26.254,24.637,27.148c-8.139-26.778-23.353-45.885-36.505-58.269c-19.123-18.004-38.047-26.053-39.349-26.594
		c-8.056-2.783-15.181-4.195-21.175-4.195c-16.045,0-18.752,10.144-18.859,10.576c-0.037,0.149-0.085,0.293-0.143,0.432l0.004,0.002
		c-0.411,1.023-9.515,24.71,15.696,46.776c4.332-6.449,9.072-12.387,11.005-14.755c-1.289-0.118-2.665-0.175-4.148-0.149
		c0,0,6.895-18,18.656-10.75c0,0,2.792,3.207,4.19,9.281c3.387,0.198,21.28,1.607,31.041,9.332c0.393-0.235,0.772-0.45,1.137-0.648
		c-2.381-3.303-15.198-20.232-35.621-31.848l0.002-0.003c-0.216-0.142-1.305-0.856-2.866-1.879c-0.437-0.286-0.91-0.596-1.41-0.925
		c-0.501-0.317-1.034-0.607-1.585-0.932c-0.553-0.321-1.124-0.652-1.704-0.989c-0.585-0.332-1.168-0.696-1.777-1.014
		c-1.233-0.618-2.466-1.236-3.622-1.816c-0.582-0.286-1.137-0.59-1.69-0.804c-0.548-0.231-1.066-0.45-1.544-0.652
		c-1.924-0.812-3.206-1.353-3.206-1.353s1.36,0.303,3.4,0.759c0.513,0.115,1.068,0.239,1.656,0.37
		c0.595,0.115,1.194,0.315,1.826,0.494c1.265,0.371,2.614,0.766,3.963,1.161c0.673,0.21,1.332,0.47,1.99,0.7
		c0.658,0.238,1.306,0.472,1.933,0.698c0.624,0.231,1.247,0.44,1.806,0.667c0.551,0.233,1.072,0.454,1.553,0.658
		c1.924,0.814,3.206,1.357,3.206,1.357l-0.936,1.754l0.983-1.728c23.448,13.335,36.804,32.831,37.361,33.655l-0.006,0.004
		c0.433-0.15,0.681-0.216,0.681-0.216c22.25-4.917,18.5,19.76,18.5,19.76C420.721,259.992,417.564,258.099,414.171,257.028z
		 M358.182,387.294l-0.114-0.021c-4.042-0.823-7.523-2.176-10.53-3.792c-2.178,3.271-4.148,7.409-5.863,11.689
		c6.833-0.467,21.097-1.099,36.902,0.211c1.812-4.059,3.76-7.797,5.491-10.891c-6.978,2.647-13.871,3.277-18.791,3.277
		C361.198,387.768,358.474,387.342,358.182,387.294z M368.5,366.625c10.75-5.375,9.896-22.409,9.896-22.409
		c-10.854,0.966-19.271,7.659-19.271,7.659c-7.391,6.327-2.458,12.625-2.458,12.625C360.208,369.625,368.5,366.625,368.5,366.625z
		 M408.998,224.041c0.148,0.147,0.297,0.299,0.446,0.448l7.223-1.405L413,192.667l-13,6.667l-2-11.167l-16.191,14.41
		c1.583,0.988,3.241,2.061,4.963,3.229l8.359-9.305l1.868,9.833l10.833-5l-0.864,20.73L408.998,224.041z"/>
</g>
</svg>
