<?xml version="1.0" encoding="iso-8859-1"?>
<!-- Uploaded to: SVG Repo, www.svgrepo.com, Generator: SVG Repo Mixer Tools -->
<svg fill="#000000" height="800px" width="800px" version="1.1" id="Layer_1" xmlns="http://www.w3.org/2000/svg" xmlns:xlink="http://www.w3.org/1999/xlink" 
	 viewBox="0 0 512.001 512.001" xml:space="preserve">
<g>
	<g>
		<path d="M479.878,76.665c-11.697-9.289-26.515-12.683-40.648-9.308c-3.982,0.951-7.789,2.412-11.374,4.308
			c-0.649-4.966-1.875-9.878-3.703-14.609c-5.542-14.339-15.748-25.334-28.74-30.959c-13.074-5.662-27.304-5.162-40.071,1.412
			c-4.032,2.076-7.733,4.694-11.073,7.739c-1.793-4.758-4.168-9.287-7.121-13.457c-8.477-11.968-20.612-19.558-34.174-21.374
			c-13.544-1.816-26.891,2.353-37.586,11.733c-3.591,3.151-6.724,6.77-9.387,10.737c-2.663-3.966-5.796-7.586-9.387-10.737
			C235.92,2.77,222.572-1.399,209.027,0.416c-13.562,1.816-25.698,9.407-34.174,21.374c-2.953,4.169-5.328,8.699-7.121,13.456
			c-3.339-3.045-7.042-5.663-11.073-7.739c-12.767-6.572-26.998-7.072-40.071-1.412c-12.991,5.626-23.198,16.62-28.74,30.959
			c-1.829,4.731-3.055,9.642-3.703,14.609c-3.585-1.896-7.392-3.358-11.374-4.308c-14.133-3.373-28.95,0.018-40.648,9.308
			C7.727,96.038,3.45,135.312,22.967,160.711l106.492,138.583c1.283,7.643,3.253,15.152,5.911,22.466
			c8.219,22.6,22.479,42.238,41.402,57.089v30.63c0,14.048,9.119,25.999,21.746,30.266v29.874l-24.971,24.972
			c-3.983,3.983-3.983,10.441,0,14.424c3.984,3.983,10.44,3.983,14.425,0l10.547-10.547v3.335c0,5.633,4.567,10.199,10.199,10.199
			s10.199-4.566,10.199-10.199v-3.336l10.548,10.548c1.992,1.992,4.602,2.987,7.212,2.987c2.61,0,5.22-0.996,7.212-2.987
			c3.983-3.983,3.983-10.441,0-14.424l-24.971-24.972v-29.873c12.628-4.266,21.747-16.218,21.747-30.267v-4.166
			c10.197,1.227,20.476,1.227,30.673,0v4.166c0,14.048,9.119,26,21.747,30.266v29.874l-24.971,24.972
			c-3.983,3.983-3.983,10.441,0,14.424c3.984,3.984,10.44,3.984,14.425,0l10.548-10.548v3.336c0,5.633,4.567,10.199,10.199,10.199
			s10.199-4.566,10.199-10.199v-3.335l10.547,10.547c1.992,1.992,4.602,2.987,7.212,2.987c2.61,0,5.22-0.996,7.212-2.987
			c3.983-3.983,3.983-10.441,0-14.424l-24.971-24.972v-29.874c12.627-4.266,21.746-16.218,21.746-30.266v-30.63
			c18.924-14.852,33.185-34.489,41.402-57.089c2.659-7.315,4.629-14.823,5.911-22.467L489.035,160.71
			C508.551,135.312,504.273,96.038,479.878,76.665z M346.909,70.346c2.384-11.112,8.859-20.116,17.77-24.703
			c7.229-3.722,15.268-4.016,22.629-0.829c7.935,3.437,14.263,10.396,17.82,19.596c4.101,10.612,3.825,22.518-0.747,32.633
			l-46.769,102.604c-8.766-11.407-19.48-21.389-31.807-29.4L346.909,70.346z M266.199,57.358
			c-0.028-11.916,4.578-22.803,12.639-29.873c6.2-5.437,13.813-7.872,21.428-6.85c7.883,1.056,15.069,5.653,20.235,12.946
			c6.493,9.167,8.844,21.024,6.454,32.535l-14.897,70.517c-10.445-15.17-26.875-25.915-45.858-28.781V57.405
			c0-0.011-0.001-0.021-0.001-0.033C266.198,57.368,266.199,57.363,266.199,57.358z M256,127.483
			c26.262,0,47.627,21.365,47.627,47.627c0,17.25-9.219,32.387-22.989,40.745c-0.668,0.197-1.301,0.459-1.898,0.777l10.857-15.975
			c2.123-3.124,2.347-7.167,0.578-10.505c-1.769-3.338-5.236-5.427-9.014-5.427h-50.324c-3.778,0-7.245,2.088-9.014,5.427
			c-1.769,3.339-1.545,7.381,0.578,10.505l10.857,15.975c-0.597-0.318-1.23-0.579-1.898-0.777
			c-13.77-8.357-22.989-23.495-22.989-40.745C208.373,148.848,229.738,127.483,256,127.483z M256,243.134
			c2.398,0,4.765-0.129,7.1-0.371v32.183c0,3.914-3.185,7.099-7.1,7.099c-3.914,0-7.1-3.185-7.1-7.099v-32.183
			C251.235,243.006,253.602,243.134,256,243.134z M250.101,205.122h11.798l-5.899,8.68L250.101,205.122z M191.5,33.581
			c5.165-7.292,12.351-11.89,20.235-12.946c7.623-1.021,15.228,1.413,21.428,6.85c8.059,7.07,12.666,17.958,12.639,29.897v50.469
			c-18.984,2.867-35.413,13.611-45.858,28.782l-14.894-70.5c0-0.001,0-0.001,0-0.002C182.653,54.615,185.004,42.752,191.5,33.581z
			 M106.874,64.41c3.555-9.2,9.884-16.158,17.82-19.595c7.362-3.187,15.398-2.895,22.629,0.829
			c8.91,4.588,15.386,13.591,17.763,24.673l21.11,99.925c-12.189,7.92-22.969,17.865-31.833,29.345L107.634,97.072
			C103.049,86.927,102.773,75.022,106.874,64.41z M128.396,264.433L39.141,148.281c-12.773-16.621-10.073-43.143,5.667-55.642
			c6.859-5.447,15.103-7.38,23.225-5.441c8.998,2.149,16.663,8.825,21.032,18.319l52.29,114.722
			C134.407,234.042,130.019,249.032,128.396,264.433z M148.076,277.911c0-33.535,15.873-65.238,42.128-85.524
			c4.135,15.732,13.781,29.244,26.736,38.365c-8.385,33.762-33.043,61.77-65.361,74.491
			C149.259,296.364,148.076,287.209,148.076,277.911z M319.061,365.491c-2.657,1.916-4.232,4.993-4.232,8.271v35.716
			c0,6.367-5.18,11.547-11.547,11.547c-6.366,0-11.546-5.18-11.546-11.547v-16.234c0-3.09-1.401-6.014-3.81-7.95
			c-2.409-1.936-5.568-2.675-8.585-2.01c-15.361,3.386-31.318,3.386-46.679,0c-3.018-0.665-6.177,0.073-8.585,2.01
			c-2.409,1.936-3.81,4.86-3.81,7.95v16.234c0,6.367-5.18,11.547-11.547,11.547c-6.366,0-11.546-5.18-11.546-11.547v-35.716
			c0-3.277-1.575-6.354-4.232-8.271c-14.849-10.713-26.584-24.776-34.359-41.067c30.932-12.041,56.01-35.854,69.923-65.545v16.068
			c0,11.559,7.173,21.468,17.299,25.528v18.458c0,5.633,4.567,10.199,10.199,10.199s10.199-4.566,10.199-10.199v-18.458
			c10.126-4.06,17.299-13.969,17.299-25.528v-16.068c13.914,29.692,38.991,53.504,69.923,65.546
			C345.646,340.714,333.911,354.775,319.061,365.491z M360.421,305.244c-32.318-12.722-56.975-40.73-65.361-74.492
			c12.958-9.123,22.607-22.64,26.739-38.378c26.276,20.282,42.124,51.925,42.124,85.538
			C363.923,287.211,362.74,296.366,360.421,305.244z M472.859,148.281l-89.263,116.16c-1.649-15.49-6.114-30.417-12.999-44.101
			l52.33-114.808c4.367-9.502,12.037-16.185,21.04-18.335c8.119-1.94,16.367-0.006,23.225,5.441
			C482.932,105.138,485.632,131.66,472.859,148.281z"/>
	</g>
</g>
<g>
	<g>
		<path d="M224.369,155.52c-5.632,0-10.199,4.566-10.199,10.199v3.953c0,5.633,4.567,10.199,10.199,10.199
			s10.199-4.566,10.199-10.199v-3.953C234.568,160.086,230.001,155.52,224.369,155.52z"/>
	</g>
</g>
<g>
	<g>
		<path d="M287.632,155.52c-5.632,0-10.199,4.566-10.199,10.199v3.953c0,5.633,4.566,10.199,10.199,10.199
			c5.632,0,10.199-4.566,10.199-10.199v-3.953C297.831,160.086,293.264,155.52,287.632,155.52z"/>
	</g>
</g>
<g>
	<g>
		<path d="M256,337.399c-5.632,0-10.199,4.566-10.199,10.199v3.953c0,5.633,4.567,10.199,10.199,10.199s10.199-4.566,10.199-10.199
			v-3.953C266.199,341.965,261.632,337.399,256,337.399z"/>
	</g>
</g>
</svg>